<svg xmlns="http://www.w3.org/2000/svg" width="72" height="72" viewBox="0 0 72 72">
  <metadata><?xpacket begin="﻿" id="W5M0MpCehiHzreSzNTczkc9d"?>
<x:xmpmeta xmlns:x="adobe:ns:meta/" x:xmptk="Adobe XMP Core 5.6-c142 79.160924, 2017/07/13-01:06:39        ">
   <rdf:RDF xmlns:rdf="http://www.w3.org/1999/02/22-rdf-syntax-ns#">
      <rdf:Description rdf:about=""/>
   </rdf:RDF>
</x:xmpmeta>
                                                                                                    
                                                                                                    
                                                                                                    
                                                                                                    
                                                                                                    
                                                                                                    
                                                                                                    
                                                                                                    
                                                                                                    
                                                                                                    
                                                                                                    
                                                                                                    
                                                                                                    
                                                                                                    
                                                                                                    
                                                                                                    
                                                                                                    
                                                                                                    
                                                                                                    
                                                                                                    
                           
<?xpacket end="w"?></metadata>
<defs>
    <style>
      .cls-1 {
        fill-rule: evenodd;
        opacity: 0.7;
      }
    </style>
  </defs>
  <path id="ic_today_cloud.svg" class="cls-1" d="M919,1461H880v-0.02c-0.194,0-.385.03-0.581,0.03a16.45,16.45,0,0,1-9.992-29.49,23.78,23.78,0,0,1,47.25-2.34,14.849,14.849,0,0,1,2.323-.19A16.005,16.005,0,0,1,919,1461Zm0.012-27.01a10.894,10.894,0,0,0-6.3,2.02h-0.976a18.978,18.978,0,1,0-37.715-3.01c0,0.46.04,0.91,0.072,1.36a11.49,11.49,0,0,0,5.419,21.62c0.166,0,.328-0.01.492-0.02v0.05h39.014v-0.03A11,11,0,0,0,919.007,1433.99Z" transform="translate(-863 -1399)"/>
</svg>
