<svg xmlns="http://www.w3.org/2000/svg" width="72" height="72" viewBox="0 0 72 72">
  <metadata><?xpacket begin="﻿" id="W5M0MpCehiHzreSzNTczkc9d"?>
<x:xmpmeta xmlns:x="adobe:ns:meta/" x:xmptk="Adobe XMP Core 5.6-c142 79.160924, 2017/07/13-01:06:39        ">
   <rdf:RDF xmlns:rdf="http://www.w3.org/1999/02/22-rdf-syntax-ns#">
      <rdf:Description rdf:about=""/>
   </rdf:RDF>
</x:xmpmeta>
                                                                                                    
                                                                                                    
                                                                                                    
                                                                                                    
                                                                                                    
                                                                                                    
                                                                                                    
                                                                                                    
                                                                                                    
                                                                                                    
                                                                                                    
                                                                                                    
                                                                                                    
                                                                                                    
                                                                                                    
                                                                                                    
                                                                                                    
                                                                                                    
                                                                                                    
                                                                                                    
                           
<?xpacket end="w"?></metadata>
<defs>
    <style>
      .cls-1 {
        fill-rule: evenodd;
        opacity: 0.7;
      }
    </style>
  </defs>
  <path id="ic_taday_humidity.svg" class="cls-1" d="M180,1225c-13.255,0-24-11.75-24-25s24-41,24-41,24,27.74,24,41S193.255,1225,180,1225Zm0-59s-19,23.28-19,33.92,8.507,20.08,19,20.08,19-9.43,19-20.08S180,1166,180,1166Zm13.4,36.54a9.228,9.228,0,0,1-14.406,0h-0.022a5.178,5.178,0,0,0-4.173-1.56,5.092,5.092,0,0,0-3.907,1.85,2.042,2.042,0,0,1-1.852,1.17,2.017,2.017,0,0,1-2.045-2.01,2.579,2.579,0,0,1,.6-1.53,9.182,9.182,0,0,1,7.2-3.46,9.317,9.317,0,0,1,7.415,3.08l0,0.01a5.066,5.066,0,0,0,7.893.08,2.048,2.048,0,0,1,3.9.84A1.778,1.778,0,0,1,193.4,1202.54Z" transform="translate(-144 -1156)"/>
</svg>
