<svg xmlns="http://www.w3.org/2000/svg" width="72" height="72" viewBox="0 0 72 72">
  <metadata><?xpacket begin="﻿" id="W5M0MpCehiHzreSzNTczkc9d"?>
<x:xmpmeta xmlns:x="adobe:ns:meta/" x:xmptk="Adobe XMP Core 5.6-c142 79.160924, 2017/07/13-01:06:39        ">
   <rdf:RDF xmlns:rdf="http://www.w3.org/1999/02/22-rdf-syntax-ns#">
      <rdf:Description rdf:about=""/>
   </rdf:RDF>
</x:xmpmeta>
                                                                                                    
                                                                                                    
                                                                                                    
                                                                                                    
                                                                                                    
                                                                                                    
                                                                                                    
                                                                                                    
                                                                                                    
                                                                                                    
                                                                                                    
                                                                                                    
                                                                                                    
                                                                                                    
                                                                                                    
                                                                                                    
                                                                                                    
                                                                                                    
                                                                                                    
                                                                                                    
                           
<?xpacket end="w"?></metadata>
<defs>
    <style>
      .cls-1 {
        fill-rule: evenodd;
        opacity: 0.7;
      }
    </style>
  </defs>
  <path id="ic_today_pressure.svg" class="cls-1" d="M198.624,1464.23a2.462,2.462,0,0,1-1.624.61,2.491,2.491,0,0,1-1.455-4.52l-0.015-.03A28,28,0,1,0,152,1437c0,16.9,14.51,24.66,12.47,23.29l-0.015.03a2.491,2.491,0,1,1-3.079,3.91A33,33,0,1,1,198.624,1464.23ZM164,1435.5a2.5,2.5,0,0,1-5,0V1435a21,21,0,0,1,42,0v0.01s0,0.12,0,.49a2.5,2.5,0,0,1-5,0V1435a16,16,0,0,0-32,0v0.5Zm7.047-5.33s9.224,10.74,8.793,10.23c0.98,1.16,1.475,2.19.844,3.37a1.932,1.932,0,0,1-.447.58,2.39,2.39,0,0,1-3.08.07,4.533,4.533,0,0,1-.578-0.73l-7-10.86a2.246,2.246,0,0,1-.416-2.09A1.38,1.38,0,0,1,171.047,1430.17Z" transform="translate(-144 -1398.42)"/>
</svg>
