<svg xmlns="http://www.w3.org/2000/svg" width="72" height="72" viewBox="0 0 72 72">
  <metadata><?xpacket begin="﻿" id="W5M0MpCehiHzreSzNTczkc9d"?>
<x:xmpmeta xmlns:x="adobe:ns:meta/" x:xmptk="Adobe XMP Core 5.6-c142 79.160924, 2017/07/13-01:06:39        ">
   <rdf:RDF xmlns:rdf="http://www.w3.org/1999/02/22-rdf-syntax-ns#">
      <rdf:Description rdf:about=""/>
   </rdf:RDF>
</x:xmpmeta>
                                                                                                    
                                                                                                    
                                                                                                    
                                                                                                    
                                                                                                    
                                                                                                    
                                                                                                    
                                                                                                    
                                                                                                    
                                                                                                    
                                                                                                    
                                                                                                    
                                                                                                    
                                                                                                    
                                                                                                    
                                                                                                    
                                                                                                    
                                                                                                    
                                                                                                    
                                                                                                    
                           
<?xpacket end="w"?></metadata>
<defs>
    <style>
      .cls-1 {
        fill-rule: evenodd;
        opacity: 0.7;
      }
    </style>
  </defs>
  <path id="ic_taday_visibility.svg" class="cls-1" d="M899,1213c-25.5,0-34-21-34-21s8.5-21,34-21,34,21,34,21S924.5,1213,899,1213Zm-0.467-36.99a30.724,30.724,0,0,0-27.523,16.45s7.581,15.53,27.523,15.53a33.1,33.1,0,0,0,28.457-15.53S918.476,1176.01,898.533,1176.01ZM899,1204a12,12,0,1,1,12-12A12,12,0,0,1,899,1204Zm1-20h-0.006a9,9,0,0,0-8.994,9,2,2,0,0,0,4,0,5,5,0,0,1,5-5A2,2,0,0,0,900,1184Z" transform="translate(-863 -1156)"/>
</svg>
