<svg xmlns="http://www.w3.org/2000/svg" width="240" height="240" viewBox="0 0 240 240">
  <metadata><?xpacket begin="﻿" id="W5M0MpCehiHzreSzNTczkc9d"?>
<x:xmpmeta xmlns:x="adobe:ns:meta/" x:xmptk="Adobe XMP Core 5.6-c142 79.160924, 2017/07/13-01:06:39        ">
   <rdf:RDF xmlns:rdf="http://www.w3.org/1999/02/22-rdf-syntax-ns#">
      <rdf:Description rdf:about=""/>
   </rdf:RDF>
</x:xmpmeta>
                                                                                                    
                                                                                                    
                                                                                                    
                                                                                                    
                                                                                                    
                                                                                                    
                                                                                                    
                                                                                                    
                                                                                                    
                                                                                                    
                                                                                                    
                                                                                                    
                                                                                                    
                                                                                                    
                                                                                                    
                                                                                                    
                                                                                                    
                                                                                                    
                                                                                                    
                                                                                                    
                           
<?xpacket end="w"?></metadata>
<defs>
    <style>
      .cls-1 {
        fill: #4c4c4c;
        fill-rule: evenodd;
      }
    </style>
  </defs>
  <path id="img_windmill_turn" class="cls-1" d="M161.75,150.924c-25.694-17.448-31.907-26.817-31.907-26.817,25.763,5.961,94.15,53.146,94.15,53.146C221.749,179.381,161.75,150.924,161.75,150.924Zm-41.844-23.831h-0.031a7,7,0,0,1,0-14h0.031A7,7,0,0,1,119.906,127.093ZM117.888,1c2.855,0.879,8.008,67.058,8.008,67.058-2.182,30.971-7.007,41.036-7.007,41.036C111.456,83.8,117.888,1,117.888,1ZM71.919,140.279c27.96-13.524,39.183-14.218,39.183-14.218-18.045,19.326-93.11,54.947-93.11,54.947C17.27,178,71.919,140.279,71.919,140.279Z"/>
</svg>
